<?xml version="1.0" standalone="no"?>
<!DOCTYPE svg PUBLIC "-//W3C//DTD SVG 20010904//EN"
 "http://www.w3.org/TR/2001/REC-SVG-20010904/DTD/svg10.dtd">
<svg version="1.0" xmlns="http://www.w3.org/2000/svg"
 width="3000.000000pt" height="3000.000000pt" viewBox="0 0 3000.000000 3000.000000"
 preserveAspectRatio="xMidYMid meet">

<g transform="translate(0.000000,3000.000000) scale(0.100000,-0.100000)"
fill="#000000" stroke="none">
<path d="M20068 21248 c-1498 -1775 -3177 -4284 -4530 -6773 -1403 -2578
-2420 -5051 -2936 -7135 -45 -179 -90 -363 -101 -410 l-20 -85 5 270 c2 149
14 664 25 1145 22 948 29 1632 16 1721 -5 31 -15 65 -23 75 -13 18 -16 17 -52
-22 -20 -23 -74 -99 -119 -170 -123 -194 -195 -288 -317 -410 -217 -217 -409
-304 -668 -304 -177 0 -307 34 -503 129 -784 383 -1715 1599 -2830 3696 -119
225 -665 1319 -771 1547 -32 69 -60 125 -61 124 -3 -3 247 -814 353 -1146 874
-2722 1687 -4633 2467 -5794 508 -756 1003 -1192 1501 -1320 54 -15 129 -29
167 -32 38 -4 69 -11 69 -15 0 -5 45 -9 100 -9 55 0 100 4 100 9 0 4 32 11 71
15 158 14 428 91 696 197 149 59 196 88 241 149 33 45 220 364 3215 5510 907
1559 2032 3492 2500 4295 467 803 1025 1761 1239 2129 980 1683 1459 2509
1456 2512 -3 3 -1123 284 -1132 284 -2 0 -73 -82 -158 -182z"/>
</g>
</svg>
