<svg width="60" height="60" viewBox="0 0 60 60" fill="none" xmlns="http://www.w3.org/2000/svg">
<g clip-path="url(#clip0_36_76)">
<path fill-rule="evenodd" clip-rule="evenodd" d="M53.3737 41.9279H37.2773C36.9803 41.9277 36.6909 42.0216 36.4505 42.196C36.2101 42.3705 36.0311 42.6165 35.9392 42.899L35.0922 45.5085H24.9075L24.0597 42.8991C23.9679 42.6167 23.789 42.3707 23.5487 42.1963C23.3085 42.0218 23.0192 41.9279 22.7223 41.9279H6.62646V9.8938H53.3737V41.9279Z" fill="#5EB2FC"/>
<path fill-rule="evenodd" clip-rule="evenodd" d="M19.2188 33.0938V22.2955L28.4109 29.0741C28.871 29.415 29.4285 29.599 30.0011 29.599C30.5737 29.599 31.1312 29.415 31.5913 29.0741L40.7812 22.2955V33.0938H19.2188ZM39.3002 18.7293H20.7L30 25.5865L39.3001 18.7293H39.3002ZM44.5312 34.221V17.6016C44.5307 16.9063 44.2543 16.2396 43.7627 15.7479C43.2712 15.2561 42.6046 14.9795 41.9093 14.9787H18.0914C17.396 14.9793 16.7292 15.2559 16.2375 15.7476C15.7458 16.2394 15.4693 16.9062 15.4688 17.6016V34.221C15.4695 34.9163 15.7461 35.5829 16.2379 36.0745C16.7296 36.5661 17.3963 36.8425 18.0916 36.8431H41.9088C42.6041 36.8424 43.2706 36.5659 43.7623 36.0744C44.2539 35.5828 44.5305 34.9162 44.5312 34.221ZM56.25 47.4232C56.2492 48.01 56.0158 48.5726 55.6008 48.9875C55.1859 49.4024 54.6234 49.6359 54.0366 49.6367H5.96332C5.37655 49.6358 4.81405 49.4024 4.39915 48.9874C3.98425 48.5725 3.75081 48.01 3.75 47.4232V45.2097H21.3605L22.1031 47.4934C22.2251 47.8701 22.4633 48.1984 22.7835 48.4312C23.1037 48.6641 23.4895 48.7894 23.8854 48.7894H36.1131C36.5093 48.7897 36.8953 48.6645 37.2159 48.4316C37.5364 48.1988 37.7749 47.8703 37.897 47.4934L38.6396 45.2097H56.25V47.4232ZM7.09523 10.3626V41.4592H22.7227C23.1185 41.4592 23.5043 41.5844 23.8246 41.8171C24.145 42.0497 24.3834 42.3778 24.5059 42.7542L25.2484 45.0394H34.7523L35.4941 42.7542C35.6168 42.3779 35.8553 42.05 36.1756 41.8174C36.4959 41.5848 36.8815 41.4594 37.2773 41.4592H52.905V10.3626H7.09523ZM60 43.3344C60 42.8372 59.8025 42.3602 59.4508 42.0086C59.0992 41.657 58.6223 41.4594 58.125 41.4594H56.6546V9.95159C56.6539 9.06652 56.302 8.2179 55.6763 7.59198C55.0505 6.96605 54.202 6.61394 53.3169 6.61292H6.68332C5.7983 6.61409 4.94987 6.96625 4.32416 7.59215C3.69844 8.21804 3.34652 9.06656 3.34559 9.95159V41.4592H1.875C1.37772 41.4592 0.900806 41.6567 0.549175 42.0084C0.197544 42.36 0 42.8369 0 43.3342L0 47.423C0.00179852 49.0041 0.630626 50.5199 1.74855 51.638C2.86648 52.7561 4.38223 53.3851 5.96332 53.3871H54.036C55.6172 53.3853 57.133 52.7564 58.2511 51.6383C59.3692 50.5203 59.9981 49.0044 60 47.4232V43.3344Z" fill="#4B6274"/>
</g>
<defs>
<clipPath id="clip0_36_76">
<rect width="60" height="60" fill="white"/>
</clipPath>
</defs>
</svg>
