<svg width="60" height="60" viewBox="0 0 60 60" fill="none" xmlns="http://www.w3.org/2000/svg">
<g clip-path="url(#clip0_36_48)">
<path d="M37 13V24.16C37.0726 24.946 37.4396 25.6755 38.0275 26.2023C38.6154 26.729 39.3808 27.0139 40.17 27H56C56.7956 27 57.5587 26.6839 58.1213 26.1213C58.6839 25.5587 59 24.7956 59 24V13H37Z" fill="#4E98EC"/>
<path d="M39 40V58C39 58.2652 38.8946 58.5196 38.7071 58.7071C38.5196 58.8947 38.2652 59 38 59H2C1.73478 59 1.48043 58.8947 1.29289 58.7071C1.10536 58.5196 1 58.2652 1 58V45.61C1 40.13 5.7 36 11.17 36H28.83C30.8484 35.9955 32.8261 36.568 34.53 37.65L39 40Z" fill="#477492"/>
<path d="M28 36C28 36 28 52 20 55C12 52 12 36 12 36H28Z" fill="#F1F3F5"/>
<path d="M58.434 46.872C58.5735 46.8176 58.6952 46.7258 58.7859 46.6068C58.8766 46.4877 58.9327 46.3459 58.948 46.197C58.984 45.797 59 45.397 59 44.997C59 44.597 58.984 44.197 58.948 43.797C58.9327 43.6481 58.8766 43.5063 58.7859 43.3872C58.6952 43.2682 58.5735 43.1764 58.434 43.122L56.178 42.222C55.9011 41.1074 55.4582 40.0408 54.864 39.058L55.823 36.821C55.8832 36.6839 55.9044 36.5328 55.8843 36.3845C55.8642 36.2361 55.8035 36.0961 55.709 35.98C55.455 35.68 55.183 35.38 54.899 35.097C54.615 34.814 54.321 34.541 54.016 34.287C53.8999 34.1925 53.7599 34.1318 53.6115 34.1117C53.4632 34.0916 53.3121 34.1128 53.175 34.173L50.938 35.132C49.9552 34.5378 48.8886 34.0949 47.774 33.818L46.874 31.562C46.8196 31.4225 46.7278 31.3008 46.6088 31.2101C46.4897 31.1194 46.3479 31.0633 46.199 31.048C45.8 31.016 45.4 31 45 31C44.6 31 44.2 31.016 43.8 31.052C43.6511 31.0673 43.5093 31.1234 43.3902 31.2141C43.2712 31.3048 43.1794 31.4265 43.125 31.566L42.225 33.822C41.1104 34.0989 40.0438 34.5418 39.061 35.136L36.824 34.177C36.6869 34.1168 36.5358 34.0956 36.3875 34.1157C36.2391 34.1358 36.0991 34.1965 35.983 34.291C35.683 34.545 35.383 34.817 35.1 35.101C34.817 35.385 34.544 35.679 34.29 35.984C34.1955 36.1001 34.1348 36.2401 34.1147 36.3885C34.0946 36.5368 34.1158 36.6879 34.176 36.825L35.135 39.062C34.5408 40.0448 34.0979 41.1114 33.821 42.226L31.565 43.126C31.4255 43.1804 31.3038 43.2722 31.2131 43.3912C31.1224 43.5103 31.0663 43.6521 31.051 43.801C31.015 44.201 30.999 44.601 30.999 45.001C30.999 45.401 31.015 45.801 31.051 46.201C31.0663 46.3499 31.1224 46.4917 31.2131 46.6108C31.3038 46.7298 31.4255 46.8216 31.565 46.876L33.821 47.776C34.0979 48.8906 34.5408 49.9572 35.135 50.94L34.176 53.177C34.1158 53.3141 34.0946 53.4652 34.1147 53.6135C34.1348 53.7619 34.1955 53.9019 34.29 54.018C34.544 54.318 34.816 54.618 35.1 54.901C35.384 55.184 35.678 55.457 35.983 55.711C36.0991 55.8055 36.2391 55.8662 36.3875 55.8863C36.5358 55.9064 36.6869 55.8852 36.824 55.825L39.061 54.866C40.0438 55.4602 41.1104 55.9031 42.225 56.18L43.125 58.436C43.1794 58.5755 43.2712 58.6972 43.3902 58.7879C43.5093 58.8786 43.6511 58.9347 43.8 58.95C44.2 58.986 44.6 59.002 45 59.002C45.4 59.002 45.8 58.986 46.2 58.95C46.3489 58.9347 46.4907 58.8786 46.6098 58.7879C46.7288 58.6972 46.8206 58.5755 46.875 58.436L47.775 56.18C48.8896 55.9031 49.9562 55.4602 50.939 54.866L53.176 55.825C53.3131 55.8852 53.4642 55.9064 53.6125 55.8863C53.7609 55.8662 53.9009 55.8055 54.017 55.711C54.317 55.457 54.617 55.185 54.9 54.901C55.183 54.617 55.456 54.323 55.71 54.018C55.8045 53.9019 55.8652 53.7619 55.8853 53.6135C55.9054 53.4652 55.8842 53.3141 55.824 53.177L54.865 50.94C55.4592 49.9572 55.9021 48.8906 56.179 47.776L58.434 46.872Z" fill="#A8AEB5"/>
<path d="M45 52C48.866 52 52 48.866 52 45C52 41.134 48.866 38 45 38C41.134 38 38 41.134 38 45C38 48.866 41.134 52 45 52Z" fill="#8E94A0"/>
<path d="M45 48C46.6569 48 48 46.6569 48 45C48 43.3431 46.6569 42 45 42C43.3431 42 42 43.3431 42 45C42 46.6569 43.3431 48 45 48Z" fill="#A8AEB5"/>
<path d="M7 16.59V14.268C6.96481 10.7847 8.3146 7.43015 10.7525 4.94199C13.1904 2.45384 16.5168 1.03589 20 1C23.4832 1.03589 26.8096 2.45384 29.2475 4.94199C31.6854 7.43015 33.0352 10.7847 33 14.268V16.59H7Z" fill="#7A543B"/>
<path d="M15 31H25V37.348H15V31Z" fill="#E2B793"/>
<path d="M20 37.35C18.6637 37.4977 17.3956 38.0174 16.34 38.85C15.6819 39.411 15.2138 40.1621 15 41C14.1283 40.4765 13.3987 39.7466 12.8755 38.8747C12.3524 38.0027 12.0517 37.0155 12 36C12.3319 35.475 12.7705 35.0256 13.2874 34.6811C13.8042 34.3365 14.3877 34.1045 15 34C15 34 15.87 36.52 20 37.35Z" fill="#D9DDE3"/>
<path d="M28 36C27.9483 37.0155 27.6476 38.0027 27.1245 38.8747C26.6013 39.7466 25.8717 40.4765 25 41C24.7862 40.1621 24.3181 39.411 23.66 38.85C22.6044 38.0174 21.3363 37.4977 20 37.35C24.13 36.52 25 34 25 34C25.6123 34.1045 26.1958 34.3365 26.7126 34.6811C27.2295 35.0256 27.6681 35.475 28 36Z" fill="#D9DDE3"/>
<path d="M23.66 38.85L22 43H18L16.34 38.85C17.3956 38.0174 18.6637 37.4977 20 37.35C21.3363 37.4977 22.6044 38.0174 23.66 38.85Z" fill="#EC5E69"/>
<path d="M33 16.59C33.156 18.196 32.8942 19.815 32.24 21.29C32.0705 21.6506 31.8242 21.9699 31.5185 22.2255C31.2128 22.4811 30.855 22.667 30.47 22.77C30.3153 22.8187 30.1794 22.914 30.081 23.0429C29.9825 23.1718 29.9263 23.3279 29.92 23.49C29.811 26.0478 28.7182 28.4647 26.8698 30.2361C25.0214 32.0074 22.5602 32.9963 20 32.9963C17.4398 32.9963 14.9786 32.0074 13.1302 30.2361C11.2818 28.4647 10.189 26.0478 10.08 23.49C10.0737 23.3279 10.0175 23.1718 9.919 23.0429C9.82055 22.914 9.68469 22.8187 9.53 22.77C9.14504 22.667 8.78721 22.4811 8.4815 22.2255C8.17578 21.9699 7.92955 21.6506 7.76 21.29C7.10579 19.815 6.84399 18.196 7 16.59C6.98842 16.3367 7.03553 16.0841 7.13765 15.852C7.23976 15.6199 7.39412 15.4145 7.58869 15.2519C7.78325 15.0893 8.01276 14.9738 8.2593 14.9145C8.50585 14.8552 8.76276 14.8536 9.01 14.91C9.25481 14.9912 9.47453 15.1342 9.64795 15.3251C9.82137 15.5161 9.94262 15.7485 10 16V13.99C9.99467 13.5907 10.1434 13.2048 10.4153 12.9124C10.6873 12.62 11.0614 12.4436 11.46 12.42C14.22 12.3 19.85 11.4 22.93 9.30997C23.1119 9.19329 23.3162 9.11609 23.5298 9.08336C23.7434 9.05064 23.9615 9.06311 24.17 9.11997C25.81 9.52997 30 11.33 30 15.6V16C30.0574 15.7485 30.1786 15.5161 30.352 15.3251C30.5255 15.1342 30.7452 14.9912 30.99 14.91C31.2372 14.8536 31.4942 14.8552 31.7407 14.9145C31.9872 14.9738 32.2167 15.0893 32.4113 15.2519C32.6059 15.4145 32.7602 15.6199 32.8624 15.852C32.9645 16.0841 33.0116 16.3367 33 16.59Z" fill="#EEC7A4"/>
<path d="M43 8V20C43 20.2652 42.8946 20.5196 42.7071 20.7071C42.5196 20.8946 42.2652 21 42 21H40C39.2044 21 38.4413 21.3161 37.8787 21.8787C37.3161 22.4413 37 23.2044 37 24V10C37 9.20435 37.3161 8.44129 37.8787 7.87868C38.4413 7.31607 39.2044 7 40 7H42C42.2652 7 42.5196 7.10536 42.7071 7.29289C42.8946 7.48043 43 7.73478 43 8Z" fill="#67ACF6"/>
<path d="M59 10V24C59 23.2044 58.6839 22.4413 58.1213 21.8787C57.5587 21.3161 56.7956 21 56 21H54C53.7348 21 53.4804 20.8946 53.2929 20.7071C53.1054 20.5196 53 20.2652 53 20V8C53 7.73478 53.1054 7.48043 53.2929 7.29289C53.4804 7.10536 53.7348 7 54 7H56C56.7956 7 57.5587 7.31607 58.1213 7.87868C58.6839 8.44129 59 9.20435 59 10Z" fill="#67ACF6"/>
<path d="M23.07 52.87L23.06 52.89C22.2213 53.8255 21.1726 54.5487 20 55C18.8274 54.5487 17.7787 53.8255 16.94 52.89L16.93 52.87L18 43H22L23.07 52.87Z" fill="#D94C57"/>
<path d="M45 37C43.4178 37 41.871 37.4692 40.5554 38.3482C39.2399 39.2273 38.2145 40.4767 37.609 41.9385C37.0035 43.4003 36.845 45.0089 37.1537 46.5607C37.4624 48.1126 38.2243 49.538 39.3432 50.6569C40.462 51.7757 41.8874 52.5376 43.4393 52.8463C44.9911 53.155 46.5997 52.9965 48.0615 52.391C49.5233 51.7855 50.7727 50.7602 51.6518 49.4446C52.5308 48.129 53 46.5823 53 45C52.9976 42.879 52.154 40.8456 50.6542 39.3458C49.1545 37.846 47.121 37.0024 45 37ZM45 51C43.8133 51 42.6533 50.6481 41.6666 49.9888C40.6799 49.3295 39.9109 48.3925 39.4567 47.2961C39.0026 46.1997 38.8838 44.9933 39.1153 43.8295C39.3468 42.6656 39.9182 41.5965 40.7574 40.7574C41.5965 39.9182 42.6656 39.3468 43.8295 39.1153C44.9933 38.8838 46.1997 39.0026 47.2961 39.4567C48.3925 39.9108 49.3295 40.6799 49.9888 41.6666C50.6481 42.6533 51 43.8133 51 45C50.9984 46.5908 50.3658 48.116 49.2409 49.2409C48.116 50.3658 46.5908 50.9984 45 51Z" fill="#373737"/>
<path d="M45 41C44.2089 41 43.4355 41.2346 42.7777 41.6741C42.1199 42.1136 41.6072 42.7384 41.3045 43.4693C41.0017 44.2002 40.9225 45.0044 41.0769 45.7804C41.2312 46.5563 41.6122 47.269 42.1716 47.8284C42.731 48.3878 43.4437 48.7688 44.2196 48.9231C44.9956 49.0775 45.7998 48.9983 46.5307 48.6955C47.2616 48.3928 47.8864 47.8801 48.3259 47.2223C48.7654 46.5645 49 45.7911 49 45C49 43.9391 48.5786 42.9217 47.8284 42.1716C47.0783 41.4214 46.0609 41 45 41ZM45 47C44.6044 47 44.2178 46.8827 43.8889 46.6629C43.56 46.4432 43.3036 46.1308 43.1522 45.7654C43.0009 45.3999 42.9613 44.9978 43.0384 44.6098C43.1156 44.2219 43.3061 43.8655 43.5858 43.5858C43.8655 43.3061 44.2219 43.1156 44.6098 43.0384C44.9978 42.9613 45.3999 43.0009 45.7654 43.1522C46.1308 43.3036 46.4432 43.56 46.6629 43.8889C46.8827 44.2178 47 44.6044 47 45C47 45.5304 46.7893 46.0391 46.4142 46.4142C46.0391 46.7893 45.5304 47 45 47Z" fill="#373737"/>
<path d="M58.805 42.2L57.013 41.483C56.7596 40.6204 56.4132 39.7878 55.98 39L56.741 37.224C56.8755 36.9175 56.9221 36.5797 56.8757 36.2482C56.8292 35.9167 56.6916 35.6047 56.478 35.347C56.204 35.02 55.911 34.702 55.606 34.398C55.301 34.094 54.984 33.798 54.657 33.526C54.3998 33.3123 54.0881 33.1745 53.7569 33.1281C53.4257 33.0816 53.0881 33.1283 52.782 33.263L51 34.02C50.2112 33.5866 49.3777 33.2402 48.514 32.987L47.8 31.2C47.6779 30.8883 47.4716 30.6168 47.204 30.4156C46.9365 30.2145 46.6183 30.0917 46.285 30.061C45.4291 29.984 44.5679 29.984 43.712 30.061C43.3792 30.0922 43.0617 30.2153 42.7947 30.4164C42.5277 30.6175 42.3219 30.8888 42.2 31.2L41.483 32.992C40.6206 33.2438 39.788 33.5885 39 34.02L37.224 33.259C36.9176 33.1239 36.5797 33.077 36.2481 33.1234C35.9165 33.1699 35.6044 33.3079 35.347 33.522C35.02 33.796 34.702 34.089 34.398 34.394C34.094 34.699 33.798 35.016 33.526 35.343C33.4004 35.4986 33.3024 35.6744 33.236 35.863C31.8373 35.292 30.3408 34.9989 28.83 35H28.551C27.8983 34.1677 27.009 33.5524 26 33.235V32.162C27.4092 31.2149 28.5839 29.9588 29.4345 28.4893C30.2852 27.0199 30.7895 25.3757 30.909 23.682C31.3938 23.5244 31.8416 23.2699 32.2251 22.9341C32.6086 22.5982 32.9199 22.1878 33.14 21.728C33.8618 20.1172 34.1579 18.348 34 16.59V14.269C34.0312 10.5216 32.5748 6.91487 29.9502 4.23989C27.3257 1.56491 23.7473 0.0401203 20 0C16.2527 0.0401203 12.6743 1.56491 10.0498 4.23989C7.42522 6.91487 5.9688 10.5216 6 14.269V16.59C5.84215 18.3503 6.13932 20.1216 6.863 21.734C7.08303 22.1928 7.39397 22.6022 7.77696 22.9372C8.15995 23.2722 8.607 23.5259 9.091 23.683C9.21066 25.3765 9.71501 27.0205 10.5657 28.4898C11.4163 29.9591 12.5909 31.215 14 32.162V33.235C12.7704 33.602 11.732 34.4334 11.105 35.553C11.0358 35.6918 10.9999 35.8449 11 36C11 36.664 11.1 51.9 19 55.655V58H2V45.61C2.03303 43.7512 2.66347 41.9523 3.79805 40.4795C4.93263 39.0067 6.5111 37.9382 8.3 37.432C8.42548 37.3926 8.54197 37.3289 8.64282 37.2445C8.74367 37.16 8.8269 37.0566 8.88777 36.94C8.94864 36.8234 8.98595 36.696 8.99757 36.565C9.00919 36.434 8.9949 36.302 8.9555 36.1765C8.9161 36.051 8.85238 35.9345 8.76796 35.8337C8.68355 35.7328 8.58009 35.6496 8.46351 35.5887C8.34692 35.5279 8.21949 35.4905 8.08849 35.4789C7.95749 35.4673 7.82548 35.4816 7.7 35.521C5.50379 36.1537 3.56942 37.4762 2.1828 39.2931C0.796168 41.1099 0.0308643 43.3247 0 45.61L0 58C0 58.5304 0.210714 59.0391 0.585786 59.4142C0.960859 59.7893 1.46957 60 2 60H38C38.5304 60 39.0391 59.7893 39.4142 59.4142C39.7893 59.0391 40 58.5304 40 58V56.463C40.482 56.6772 40.977 56.8608 41.482 57.013L42.199 58.805C42.3211 59.1167 42.5274 59.3882 42.795 59.5894C43.0625 59.7905 43.3807 59.9133 43.714 59.944C44.139 59.982 44.569 60 45 60C45.431 60 45.861 59.982 46.287 59.944C46.6199 59.9129 46.9377 59.79 47.2049 59.5889C47.472 59.3877 47.6781 59.1164 47.8 58.805L48.517 57.013C49.3796 56.7596 50.2122 56.4132 51 55.98L52.776 56.741C53.0825 56.8755 53.4203 56.9221 53.7518 56.8757C54.0833 56.8292 54.3953 56.6916 54.653 56.478C54.98 56.204 55.298 55.911 55.602 55.606C55.906 55.301 56.202 54.984 56.474 54.657C56.6877 54.3998 56.8255 54.0881 56.8719 53.7569C56.9184 53.4257 56.8717 53.0881 56.737 52.782L55.98 51C56.4134 50.2112 56.7598 49.3777 57.013 48.514L58.805 47.797C59.1167 47.6749 59.3882 47.4686 59.5894 47.201C59.7905 46.9335 59.9133 46.6153 59.944 46.282C59.982 45.857 60 45.427 60 44.996C60 44.565 59.982 44.135 59.944 43.709C59.9122 43.3768 59.7889 43.0598 59.5879 42.7934C59.3868 42.5271 59.1158 42.3216 58.805 42.2ZM20 53.92C19.2475 53.5757 18.5615 53.1018 17.973 52.52L18.9 44H21.1L22.024 52.524C21.4361 53.1041 20.7511 53.5766 20 53.92ZM20 38.354C20.8627 38.465 21.6943 38.7487 22.445 39.188L21.323 42H18.677L17.555 39.2C18.3061 38.7591 19.1371 38.4716 20 38.354ZM15.97 41.242C16.0012 41.1263 16.0389 41.0124 16.083 40.901L16.983 43.14L16.215 50.225C14.727 47.3671 13.7779 44.2596 13.415 41.058C13.7531 41.3634 14.1198 41.6357 14.51 41.871C14.6442 41.9467 14.794 41.9905 14.9478 41.9988C15.1017 42.0071 15.2554 41.9797 15.3969 41.9188C15.5384 41.8579 15.6639 41.7652 15.7637 41.6478C15.8635 41.5304 15.9348 41.3915 15.972 41.242H15.97ZM23.79 50.23L23.021 43.14L23.921 40.901C23.9649 41.0125 24.0027 41.1263 24.034 41.242C24.0713 41.3915 24.1425 41.5304 24.2423 41.6478C24.3421 41.7652 24.4676 41.8579 24.6091 41.9188C24.7506 41.9797 24.9043 42.0071 25.0582 41.9988C25.212 41.9905 25.3618 41.9467 25.496 41.871C25.8878 41.6351 26.2562 41.3621 26.596 41.056C26.2331 44.2606 25.2818 47.3707 23.79 50.23ZM26.99 36.252C26.892 37.467 26.3332 38.5986 25.428 39.415C24.8797 38.5013 24.085 37.7607 23.135 37.278C24.0741 36.7728 24.8809 36.0533 25.49 35.178C26.0899 35.3721 26.615 35.7473 26.993 36.252H26.99ZM20 2C23.1576 2.03887 26.1756 3.30716 28.4131 5.53549C30.6505 7.76381 31.9312 10.7766 31.983 13.934C31.596 13.8343 31.1903 13.8316 30.802 13.926C29.949 10.459 26.542 8.683 24.424 8.153C24.0776 8.05857 23.7151 8.03907 23.3605 8.09581C23.006 8.15254 22.6676 8.28419 22.368 8.482C19.545 10.398 14.152 11.302 11.411 11.421C10.7738 11.4557 10.1726 11.728 9.72631 12.1841C9.27997 12.6403 9.02082 13.2471 9 13.885C8.67234 13.8316 8.33726 13.8452 8.015 13.925C8.06914 10.7688 9.35108 7.75803 11.5887 5.53157C13.8264 3.30511 16.8436 2.0383 20 2ZM11.078 23.43C11.058 23.0584 10.9233 22.7021 10.6925 22.4102C10.4616 22.1183 10.146 21.9051 9.789 21.8C9.54222 21.7345 9.31296 21.6153 9.11762 21.4509C8.92227 21.2865 8.76567 21.081 8.659 20.849C8.07535 19.51 7.84832 18.0428 8 16.59C7.99836 16.4697 8.02459 16.3507 8.07664 16.2423C8.12869 16.1339 8.20514 16.0389 8.3 15.965C8.38811 15.8951 8.49657 15.8558 8.609 15.853C8.65125 15.8529 8.6933 15.8587 8.734 15.87C8.86061 15.928 8.96113 16.031 9.016 16.159C9.06 16.4033 9.19329 16.6225 9.38996 16.774C9.58663 16.9255 9.83261 16.9984 10.0801 16.9786C10.3275 16.9587 10.5587 16.8476 10.7288 16.6667C10.8988 16.4858 10.9955 16.2482 11 16V13.99C10.9953 13.8491 11.0443 13.7117 11.1371 13.6057C11.23 13.4996 11.3597 13.4329 11.5 13.419C14.572 13.285 20.3 12.301 23.478 10.143C23.5449 10.1045 23.6189 10.08 23.6956 10.0709C23.7722 10.0618 23.8499 10.0683 23.924 10.09C24.135 10.142 29 11.407 29 15.6V16C29.0004 16.2511 29.0953 16.4929 29.2658 16.6772C29.4363 16.8616 29.6699 16.9751 29.9202 16.9951C30.1705 17.0151 30.4192 16.9403 30.6169 16.7853C30.8145 16.6304 30.9466 16.4068 30.987 16.159C31.0411 16.0314 31.141 15.9287 31.267 15.871C31.3419 15.8506 31.4206 15.8484 31.4965 15.8648C31.5724 15.8811 31.6432 15.9155 31.703 15.965C31.7979 16.0389 31.8743 16.1339 31.9264 16.2423C31.9784 16.3507 32.0046 16.4697 32.003 16.59C32.1555 18.0415 31.9295 19.5078 31.347 20.846C31.2383 21.0826 31.0781 21.292 30.8781 21.4588C30.6781 21.6256 30.4433 21.7456 30.191 21.81C29.8394 21.9177 29.5294 22.1309 29.3029 22.4207C29.0765 22.7104 28.9445 23.0628 28.925 23.43C28.8063 25.7257 27.8173 27.8899 26.1592 29.482C24.5011 31.0741 22.2986 31.9746 20 32C17.7019 31.9738 15.5001 31.073 13.8427 29.481C12.1852 27.8889 11.1966 25.7252 11.078 23.43ZM20 34C21.3707 34.0003 22.7286 33.7371 24 33.225V33.788C23.774 34.232 22.827 35.697 20 36.322C17.162 35.695 16.218 34.222 16 33.792V33.225C17.2714 33.7371 18.6293 34.0003 20 34ZM14.507 35.174C15.1161 36.0493 15.9229 36.7688 16.862 37.274C15.9123 37.7566 15.1176 38.4968 14.569 39.41C13.6635 38.5943 13.1046 37.4628 13.007 36.248C13.3845 35.7441 13.9083 35.369 14.507 35.174ZM21 58V55.655C27.834 52.406 28.831 40.581 28.975 37.01C30.6569 37.0309 32.3034 37.4967 33.747 38.36L34.02 39C33.5866 39.7888 33.2402 40.6223 32.987 41.486L31.2 42.2C30.8883 42.3221 30.6168 42.5284 30.4156 42.796C30.2145 43.0635 30.0917 43.3817 30.061 43.715C30.018 44.139 30 44.569 30 45C30 45.431 30.018 45.861 30.056 46.287C30.0875 46.6205 30.2112 46.9387 30.4132 47.2059C30.6153 47.4731 30.8877 47.6788 31.2 47.8L32.992 48.517C33.2438 49.3794 33.5885 50.212 34.02 51L33.259 52.776C33.1245 53.0825 33.0779 53.4203 33.1243 53.7518C33.1708 54.0833 33.3084 54.3953 33.522 54.653C33.796 54.98 34.089 55.298 34.394 55.602C34.699 55.906 35.016 56.202 35.343 56.474C35.6002 56.6877 35.9119 56.8255 36.2431 56.8719C36.5743 56.9184 36.9119 56.8717 37.218 56.737L38 56.407V58H21ZM57.963 45.983L55.807 46.846C55.6597 46.9047 55.5284 46.9977 55.4241 47.1171C55.3198 47.2366 55.2454 47.3791 55.207 47.533C54.9546 48.5509 54.55 49.5248 54.007 50.422C53.9251 50.5578 53.8767 50.7112 53.8657 50.8694C53.8547 51.0276 53.8816 51.1862 53.944 51.332L54.86 53.471C54.648 53.719 54.424 53.96 54.191 54.192C53.958 54.424 53.718 54.649 53.47 54.861L51.331 53.945C51.1853 53.882 51.0267 53.8549 50.8683 53.8658C50.71 53.8768 50.5566 53.9255 50.421 54.008C49.5238 54.551 48.5499 54.9556 47.532 55.208C47.3781 55.2464 47.2356 55.3208 47.1161 55.4251C46.9967 55.5294 46.9037 55.6607 46.845 55.808L45.982 57.964C45.3277 58.015 44.6703 58.015 44.016 57.964L43.153 55.808C43.0943 55.6607 43.0013 55.5294 42.8819 55.4251C42.7624 55.3208 42.6199 55.2464 42.466 55.208C41.4481 54.9556 40.4742 54.551 39.577 54.008C39.4414 53.9256 39.288 53.8769 39.1297 53.866C38.9713 53.855 38.8127 53.8821 38.667 53.945L38.617 53.967L38.603 53.973L36.528 54.861C36.28 54.649 36.039 54.425 35.807 54.192C35.575 53.959 35.35 53.719 35.138 53.471L36.054 51.332C36.1164 51.1862 36.1433 51.0276 36.1323 50.8694C36.1213 50.7112 36.0729 50.5578 35.991 50.422C35.448 49.5248 35.0434 48.5509 34.791 47.533C34.7526 47.3791 34.6782 47.2366 34.5739 47.1171C34.4696 46.9977 34.3383 46.9047 34.191 46.846L32.035 45.983C32.012 45.658 32 45.329 32 45C32 44.671 32.012 44.342 32.037 44.017L34.193 43.154C34.3403 43.0953 34.4716 43.0023 34.5759 42.8829C34.6802 42.7634 34.7546 42.6209 34.793 42.467C35.0454 41.4491 35.45 40.4752 35.993 39.578C36.0749 39.4422 36.1233 39.2888 36.1343 39.1306C36.1453 38.9724 36.1184 38.8138 36.056 38.668L35.14 36.529C35.352 36.281 35.576 36.04 35.809 35.808C36.042 35.576 36.282 35.351 36.53 35.139L38.669 36.055C38.8148 36.1174 38.9734 36.1443 39.1316 36.1333C39.2898 36.1223 39.4432 36.0739 39.579 35.992C40.4762 35.449 41.4501 35.0444 42.468 34.792C42.6219 34.7536 42.7644 34.6792 42.8839 34.5749C43.0033 34.4706 43.0963 34.3393 43.155 34.192L44.018 32.036C44.6723 31.985 45.3297 31.985 45.984 32.036L46.847 34.192C46.9057 34.3393 46.9987 34.4706 47.1181 34.5749C47.2376 34.6792 47.3801 34.7536 47.534 34.792C48.5519 35.0444 49.5258 35.449 50.423 35.992C50.5588 36.0739 50.7122 36.1223 50.8704 36.1333C51.0286 36.1443 51.1872 36.1174 51.333 36.055L53.472 35.139C53.72 35.351 53.961 35.575 54.193 35.808C54.425 36.041 54.65 36.281 54.862 36.529L53.946 38.668C53.8836 38.8138 53.8567 38.9724 53.8677 39.1306C53.8787 39.2888 53.9271 39.4422 54.009 39.578C54.552 40.4752 54.9566 41.4491 55.209 42.467C55.2474 42.6209 55.3218 42.7634 55.4261 42.8829C55.5304 43.0023 55.6617 43.0953 55.809 43.154L57.965 44.017C57.99 44.342 58.002 44.671 58.002 45C58.002 45.329 57.988 45.658 57.963 45.983Z" fill="#373737"/>
<path d="M56 6H54C53.4696 6 52.9609 6.21071 52.5858 6.58579C52.2107 6.96086 52 7.46957 52 8V12H44V8C44 7.46957 43.7893 6.96086 43.4142 6.58579C43.0391 6.21071 42.5304 6 42 6H40C38.9391 6 37.9217 6.42143 37.1716 7.17157C36.4214 7.92172 36 8.93913 36 10V23.945C36 24.034 36 24.124 36.005 24.214C36.0824 25.2584 36.5575 26.2333 37.3324 26.9377C38.1073 27.6421 39.123 28.0223 40.17 28H56C57.0609 28 58.0783 27.5786 58.8284 26.8284C59.5786 26.0783 60 25.0609 60 24V10C60 8.93913 59.5786 7.92172 58.8284 7.17157C58.0783 6.42143 57.0609 6 56 6ZM38 10C38 9.46957 38.2107 8.96086 38.5858 8.58579C38.9609 8.21071 39.4696 8 40 8H42V20H40C39.2977 20.0006 38.6079 20.1862 38 20.538V10ZM56 26H40.17C39.6367 26.0159 39.1169 25.83 38.7147 25.4795C38.3124 25.1289 38.0572 24.6395 38 24.109C38 24.072 38 24.036 38 24V23.969C38.0081 23.444 38.2224 22.9432 38.5966 22.5748C38.9708 22.2064 39.4749 21.9999 40 22H42C42.5304 22 43.0391 21.7893 43.4142 21.4142C43.7893 21.0391 44 20.5304 44 20V14H52V20C52 20.5304 52.2107 21.0391 52.5858 21.4142C52.9609 21.7893 53.4696 22 54 22H56C56.5304 22 57.0391 22.2107 57.4142 22.5858C57.7893 22.9609 58 23.4696 58 24C58 24.5304 57.7893 25.0391 57.4142 25.4142C57.0391 25.7893 56.5304 26 56 26ZM58 20.537C57.3926 20.1842 56.7024 19.9989 56 20H54V8H56C56.5304 8 57.0391 8.21071 57.4142 8.58579C57.7893 8.96086 58 9.46957 58 10V20.537Z" fill="#373737"/>
</g>
<defs>
<clipPath id="clip0_36_48">
<rect width="60" height="60" fill="white"/>
</clipPath>
</defs>
</svg>
