<svg width="60" height="60" viewBox="0 0 60 60" fill="none" xmlns="http://www.w3.org/2000/svg">
<path d="M27.595 47.695C37.757 47.695 45.995 39.4571 45.995 29.295C45.995 19.133 37.757 10.895 27.595 10.895C17.433 10.895 9.19501 19.133 9.19501 29.295C9.19501 39.4571 17.433 47.695 27.595 47.695Z" fill="#EFEFD2"/>
<path d="M15.695 24.4848C20.6047 24.4848 24.5848 20.5047 24.5848 15.595C24.5848 10.6853 20.6047 6.7052 15.695 6.7052C10.7853 6.7052 6.80518 10.6853 6.80518 15.595C6.80518 20.5047 10.7853 24.4848 15.695 24.4848Z" fill="#00CCCA"/>
<path d="M15.695 25.2848C10.352 25.2848 6.00519 20.938 6.00519 15.595C6.00519 10.252 10.352 5.90503 15.695 5.90503C21.038 5.90503 25.3848 10.2518 25.3848 15.5948C25.3848 20.9378 21.0378 25.2848 15.695 25.2848ZM15.695 7.50503C11.234 7.50503 7.60519 11.134 7.60519 15.5948C7.60519 20.0556 11.2342 23.6846 15.695 23.6846C20.1558 23.6846 23.7848 20.0556 23.7848 15.5948C23.7848 11.134 20.1558 7.50503 15.695 7.50503Z" fill="#4C241D"/>
<path d="M15.195 24.895C14.7532 24.895 14.395 24.5368 14.395 24.095V7.09504C14.395 6.65324 14.7532 6.29504 15.195 6.29504C15.6368 6.29504 15.995 6.65324 15.995 7.09504V24.095C15.995 24.5368 15.6368 24.895 15.195 24.895Z" fill="#4C241D"/>
<path d="M16.9414 24.6352C16.7956 24.6352 16.648 24.5954 16.5152 24.5118C16.1418 24.2762 16.0296 23.7822 16.2656 23.4082C19.4726 18.3238 19.4702 13.282 16.2586 7.99462C16.029 7.61722 16.1492 7.12502 16.527 6.89582C16.9048 6.66682 17.397 6.78682 17.6258 7.16422C21.1344 12.9396 21.132 18.6924 17.6188 24.2622C17.4668 24.5032 17.207 24.6352 16.9414 24.6352Z" fill="#4C241D"/>
<path d="M13.4484 24.6352C13.1828 24.6352 12.923 24.5032 12.771 24.2622C9.25781 18.6922 9.25541 12.9396 12.764 7.16419C12.993 6.78679 13.485 6.66659 13.8628 6.89579C14.2406 7.12499 14.3608 7.61719 14.1312 7.99459C10.9194 13.2822 10.9172 18.3238 14.1242 23.4082C14.3602 23.782 14.248 24.2762 13.8746 24.5118C13.7418 24.5954 13.5942 24.6352 13.4484 24.6352Z" fill="#4C241D"/>
<path d="M15.4602 17.1828C12.4754 17.1828 9.55561 16.184 6.72081 14.186C6.35981 13.9314 6.27321 13.4324 6.52781 13.0712C6.78241 12.7102 7.28101 12.6236 7.64261 12.8782C12.7898 16.5068 18.039 16.4996 23.691 12.8594C24.0632 12.6212 24.5574 12.7278 24.7968 13.0988C25.0358 13.4702 24.9288 13.9652 24.5574 14.2046C21.4746 16.1902 18.4352 17.1828 15.4602 17.1828Z" fill="#4C241D"/>
<path d="M15.4618 13.1878C12.9594 13.1878 10.5028 12.4858 8.10759 11.0812C7.72639 10.8574 7.59859 10.3676 7.82199 9.9862C8.04619 9.6058 8.53479 9.4772 8.91699 9.7006C13.2388 12.2358 17.612 12.2334 22.2858 9.6944C22.674 9.4842 23.16 9.6272 23.3706 10.0158C23.5816 10.4036 23.4374 10.8896 23.0492 11.1006C20.4876 12.4918 17.952 13.1878 15.4618 13.1878Z" fill="#4C241D"/>
<path d="M15.4602 21.1828C12.4754 21.1828 9.55561 20.184 6.72081 18.186C6.35981 17.9314 6.27321 17.4324 6.52781 17.0712C6.78241 16.71 7.28101 16.6232 7.64261 16.8782C12.7898 20.5068 18.039 20.4996 23.691 16.8594C24.0632 16.6208 24.5574 16.7274 24.7968 17.0988C25.0358 17.4702 24.9288 17.9652 24.5574 18.2046C21.4746 20.1902 18.4352 21.1828 15.4602 21.1828Z" fill="#4C241D"/>
<path d="M21.5262 38.4262C21.3216 38.4262 21.1168 38.348 20.9606 38.1918L18.698 35.9292C18.3856 35.6168 18.3856 35.1104 18.698 34.798C19.0104 34.4856 19.5168 34.4856 19.8292 34.798L22.0916 37.0604C22.404 37.3728 22.404 37.8792 22.0916 38.1916C21.9356 38.348 21.7308 38.4262 21.5262 38.4262Z" fill="#4C241D"/>
<path d="M19.2636 38.4263C19.059 38.4263 18.8542 38.3481 18.698 38.1919C18.3856 37.8795 18.3856 37.3731 18.698 37.0607L20.9604 34.7983C21.2728 34.4859 21.7792 34.4859 22.0916 34.7983C22.404 35.1107 22.404 35.6171 22.0916 35.9295L19.8292 38.1919C19.673 38.3481 19.4684 38.4263 19.2636 38.4263Z" fill="#4C241D"/>
<path d="M14.395 32.201C14.8954 32.201 15.301 31.7954 15.301 31.295C15.301 30.7947 14.8954 30.389 14.395 30.389C13.8946 30.389 13.489 30.7947 13.489 31.295C13.489 31.7954 13.8946 32.201 14.395 32.201Z" fill="#4C241D"/>
<path d="M28.795 8.20104C29.2954 8.20104 29.701 7.79541 29.701 7.29504C29.701 6.79467 29.2954 6.38904 28.795 6.38904C28.2947 6.38904 27.889 6.79467 27.889 7.29504C27.889 7.79541 28.2947 8.20104 28.795 8.20104Z" fill="#4C241D"/>
<path d="M38.795 41.295C41.317 41.295 43.5326 39.996 44.8186 38.033L41.9706 36.7384C41.9768 36.6566 41.995 36.5784 41.995 36.495V34.895H35.595V36.495C35.595 36.5784 35.6132 36.6566 35.6194 36.7384L32.7714 38.033C34.0574 39.9958 36.273 41.295 38.795 41.295Z" fill="#E7D1C4"/>
<path d="M38.795 42.095C36.0908 42.095 33.5888 40.7404 32.1024 38.4712C31.9742 38.2758 31.9384 38.0344 32.0032 37.8102C32.068 37.586 32.2278 37.4012 32.4408 37.3048L34.795 36.2344V34.895C34.795 34.4532 35.1532 34.095 35.595 34.095H41.995C42.4368 34.095 42.795 34.4532 42.795 34.895V36.2344L45.1492 37.3048C45.362 37.4012 45.5218 37.586 45.5868 37.8102C45.6518 38.0344 45.6158 38.2758 45.4876 38.4712C44.0012 40.7402 41.4992 42.095 38.795 42.095ZM34.0152 38.346C35.2218 39.7058 36.9496 40.4948 38.7948 40.4948C40.64 40.4948 42.3678 39.7058 43.5744 38.346L41.6392 37.4664C41.3334 37.3278 41.1466 37.0122 41.1724 36.6774C41.1764 36.6286 41.1822 36.581 41.1888 36.5328L41.192 35.695H36.3948V36.495C36.4072 36.581 36.4132 36.6286 36.417 36.6774C36.4428 37.0122 36.256 37.3278 35.9502 37.4664L34.0152 38.346Z" fill="#4C241D"/>
<path d="M49.195 23.295C49.1362 23.295 49.1278 22.7068 49.1374 22.035C49.154 20.8706 48.3748 19.8352 47.2442 19.5562C41.7156 18.192 35.7792 18.4468 30.391 20.1016C29.6846 20.3184 29.2214 20.9964 29.2422 21.7348C29.263 22.484 29.2688 23.2952 29.195 23.2952C28.0662 23.2952 27.1558 24.2304 27.1964 25.3682C27.2192 26.008 27.6126 26.5862 28.1432 26.9442C28.7866 27.3784 29.3392 27.3476 29.8296 27.1826C30.6232 31.0544 33.434 34.2922 37.315 35.5414C38.4278 35.8996 39.6312 35.8654 40.7432 35.505L41.0982 35.39C44.9168 34.1524 47.7028 30.9822 48.533 27.174C49.0212 27.3464 49.5774 27.3764 50.2072 26.984C50.717 26.6664 51.1062 26.1452 51.1796 25.5492C51.3292 24.331 50.383 23.295 49.195 23.295Z" fill="#E7D1C4"/>
<path d="M38.9458 36.5955C38.3068 36.5955 37.6758 36.4979 37.07 36.3033C33.2298 35.0669 30.2832 31.9607 29.2254 28.0955C28.7044 28.1159 28.1906 27.9419 27.6958 27.6077C26.913 27.0791 26.4274 26.2531 26.3966 25.3971C26.3696 24.6287 26.6478 23.9021 27.1802 23.3507C27.5368 22.9815 27.9752 22.7233 28.456 22.5929C28.456 22.3971 28.4528 22.1277 28.4428 21.7573C28.4116 20.6515 29.1166 19.6561 30.1564 19.3369C35.7704 17.6131 41.9064 17.4155 47.436 18.7795C48.931 19.1487 49.9594 20.4919 49.9376 22.0463C49.934 22.2741 49.9336 22.4537 49.9344 22.5947C50.4548 22.7373 50.9286 23.0287 51.293 23.4407C51.8242 24.0411 52.072 24.8449 51.9734 25.6465C51.8746 26.4465 51.3726 27.2005 50.63 27.6629C50.1464 27.9641 49.648 28.1133 49.1254 28.0933C48.0368 31.8797 45.1144 34.9289 41.345 36.1507L40.9892 36.2659C40.3122 36.4853 39.6242 36.5955 38.9458 36.5955ZM29.8292 26.3825C29.9678 26.3825 30.1054 26.4185 30.228 26.4891C30.4268 26.6031 30.5666 26.7973 30.6128 27.0219C31.3604 30.6683 34.0226 33.6411 37.56 34.7801C38.487 35.0773 39.503 35.0649 40.496 34.7437L40.8518 34.6285C44.3272 33.5019 46.971 30.5801 47.751 27.0035C47.7998 26.7793 47.9428 26.5867 48.1432 26.4749C48.3436 26.3631 48.583 26.3433 48.7986 26.4195C49.1614 26.5473 49.447 26.5153 49.7842 26.3047C50.1202 26.0953 50.3452 25.7761 50.385 25.4511C50.4284 25.0991 50.3252 24.7617 50.0944 24.5003C49.8662 24.2425 49.5386 24.0949 49.1948 24.0949C48.9808 24.0949 48.7674 24.0051 48.617 23.8527C48.3548 23.5863 48.3182 23.3473 48.3374 22.0231C48.3488 21.2177 47.8202 20.5223 47.0522 20.3325C41.7994 19.0367 35.9654 19.2259 30.6256 20.8665C30.271 20.9755 30.0306 21.3231 30.0416 21.7125C30.0874 23.3687 30.0362 23.5821 29.7776 23.8481C29.6268 24.0031 29.4108 24.0949 29.1948 24.0949C28.8662 24.0949 28.5596 24.2249 28.3312 24.4617C28.103 24.6981 27.984 25.0097 27.9956 25.3399C28.0078 25.6805 28.2358 26.0415 28.5906 26.2813C28.9804 26.5437 29.2668 26.5289 29.5742 26.4243C29.6574 26.3961 29.7434 26.3825 29.8292 26.3825Z" fill="#4C241D"/>
<path d="M43.195 27.2951C43.6368 27.2951 43.995 26.9369 43.995 26.4951C43.995 26.0532 43.6368 25.6951 43.195 25.6951C42.7532 25.6951 42.395 26.0532 42.395 26.4951C42.395 26.9369 42.7532 27.2951 43.195 27.2951Z" fill="#4C241D"/>
<path d="M35.195 27.2951C35.6368 27.2951 35.995 26.9369 35.995 26.4951C35.995 26.0532 35.6368 25.6951 35.195 25.6951C34.7532 25.6951 34.395 26.0532 34.395 26.4951C34.395 26.9369 34.7532 27.2951 35.195 27.2951Z" fill="#4C241D"/>
<path d="M48.8398 39.8609L44.8186 38.0331C43.5326 39.9961 41.317 41.2951 38.795 41.2951C36.273 41.2951 34.0574 39.9961 32.7714 38.0331L28.7502 39.8609C26.1018 41.0647 24.395 43.7507 24.395 46.7147V53.2951H53.195V46.7147C53.195 43.7507 51.4882 41.0647 48.8398 39.8609Z" fill="#9DC1E4"/>
<path d="M53.195 54.0951H24.395C23.9532 54.0951 23.595 53.7369 23.595 53.2951V46.7147C23.595 43.4405 25.4888 40.4647 28.4192 39.1327L32.4402 37.3049C32.7996 37.1409 33.2238 37.2647 33.4406 37.5947C34.6304 39.4107 36.632 40.4951 38.7948 40.4951C40.9576 40.4951 42.9592 39.4107 44.149 37.5947C44.3654 37.2647 44.79 37.1407 45.1494 37.3049L49.1708 39.1331L49.1704 39.1327C52.1008 40.4647 53.9946 43.4405 53.9946 46.7147V53.2951C53.995 53.7369 53.6368 54.0951 53.195 54.0951ZM25.195 52.4951H52.395V46.7147C52.395 44.0667 50.8696 41.6623 48.509 40.5897C48.509 40.5893 48.509 40.5893 48.5086 40.5893L45.0848 39.0331C43.572 40.9623 41.268 42.0953 38.795 42.0953C36.322 42.0953 34.018 40.9625 32.5052 39.0331L29.0814 40.5893C26.7204 41.6623 25.195 44.0667 25.195 46.7147V52.4951Z" fill="#4C241D"/>
<path d="M49.195 16.4951C49.195 6.09506 29.195 7.69506 29.239 17.9631C29.244 19.1157 29.2682 20.3673 29.2564 21.2319C31.4424 21.3067 33.4844 20.5833 34.8344 19.2277C37.162 23.7485 43.6506 25.6019 49.195 21.2709C49.195 19.5931 49.195 17.2175 49.195 16.4951Z" fill="#FFCE56"/>
<path d="M42.5258 24.5282C41.8 24.5282 41.0758 24.4508 40.359 24.2934C37.9668 23.7684 35.9278 22.3914 34.632 20.4566C33.1832 21.5344 31.271 22.1034 29.2288 22.0312C28.7936 22.0164 28.4502 21.6562 28.4562 21.2206C28.4636 20.678 28.4566 19.9816 28.4492 19.2534L28.439 17.9658C28.4258 14.8904 30.0594 12.2432 33.039 10.5112C37.0686 8.16902 42.6324 7.98742 46.2706 10.0808C48.6722 11.4632 49.9948 13.741 49.9948 16.4948V21.2706C49.9948 21.5166 49.8816 21.7496 49.6874 21.901C47.4762 23.6286 44.9946 24.5282 42.5258 24.5282ZM34.8344 18.4274C34.875 18.4274 34.916 18.4306 34.957 18.4368C35.2098 18.4762 35.4284 18.6336 35.5456 18.861C36.5554 20.8228 38.435 22.2328 40.7018 22.7306C43.2726 23.2958 45.99 22.6356 48.3948 20.8732V16.495C48.3948 13.7302 46.8058 12.2352 45.4726 11.468C42.3518 9.67202 37.3516 9.85622 33.843 11.895C32.1 12.9078 30.0254 14.7822 30.039 17.9594L30.0492 19.2376C30.0534 19.6498 30.0574 20.0512 30.059 20.422C31.7332 20.32 33.2376 19.6974 34.2676 18.663C34.4188 18.511 34.6234 18.4274 34.8344 18.4274Z" fill="#4C241D"/>
<path d="M38.795 54.095C38.3532 54.095 37.995 53.7368 37.995 53.295V41.295C37.995 40.8532 38.3532 40.495 38.795 40.495C39.2368 40.495 39.595 40.8532 39.595 41.295V53.295C39.595 53.7368 39.2368 54.095 38.795 54.095Z" fill="#4C241D"/>
<path d="M45.995 46.895H42.795C42.3532 46.895 41.995 46.5368 41.995 46.095C41.995 45.6532 42.3532 45.295 42.795 45.295H45.995C46.4368 45.295 46.795 45.6532 46.795 46.095C46.795 46.5368 46.4368 46.895 45.995 46.895Z" fill="#4C241D"/>
<path d="M29.2003 29.295H26.7893C26.3505 29.295 25.9949 28.9394 25.9949 28.5006V21.2896C25.9949 20.8508 26.3505 20.4952 26.7893 20.4952H29.2003C29.6391 20.4952 29.9947 20.8508 29.9947 21.2896V28.5006C29.9949 28.9392 29.6391 29.295 29.2003 29.295Z" fill="#6B4F5B"/>
<path d="M29.2004 30.095H26.7894C25.9102 30.095 25.1948 29.3798 25.1948 28.5004V21.2894C25.1948 20.4102 25.91 19.6948 26.7894 19.6948H29.2004C30.0796 19.6948 30.795 20.41 30.795 21.2894V28.5004C30.795 29.3796 30.0796 30.095 29.2004 30.095ZM29.2004 28.495V29.295L29.2008 28.495H29.2004ZM29.195 21.2894L26.7896 21.2948L26.795 28.5002L29.195 28.4948V21.2894Z" fill="#4C241D"/>
<path d="M51.6004 29.295H49.1894C48.7506 29.295 48.395 28.9394 48.395 28.5006V21.2896C48.395 20.8508 48.7506 20.4952 49.1894 20.4952H51.6004C52.0392 20.4952 52.3948 20.8508 52.3948 21.2896V28.5006C52.395 28.9392 52.0392 29.295 51.6004 29.295Z" fill="#6B4F5B"/>
<path d="M51.6004 30.095H49.1894C48.3102 30.095 47.5948 29.3798 47.5948 28.5004V21.2894C47.5948 20.4102 48.31 19.6948 49.1894 19.6948H51.6004C52.4796 19.6948 53.195 20.41 53.195 21.2894V28.5004C53.195 29.3796 52.4796 30.095 51.6004 30.095ZM51.6004 28.495V29.295L51.6008 28.495H51.6004ZM51.595 21.2894L49.1896 21.2948L49.195 28.5002L51.595 28.4948V21.2894Z" fill="#4C241D"/>
<path d="M50.395 33.295H39.595C39.1532 33.295 38.795 32.9368 38.795 32.495C38.795 32.0532 39.1532 31.695 39.595 31.695H49.595V29.295C49.595 28.8532 49.9532 28.495 50.395 28.495C50.8368 28.495 51.195 28.8532 51.195 29.295V32.495C51.195 32.9368 50.8368 33.295 50.395 33.295Z" fill="#4C241D"/>
</svg>
